# xmcd
#
# Track frame offsets:
#	150
#	14059
#	27029
#	40399
#	55074
#	73428
#	90268
#	106340
#	118774
#	135520
#	151480
#
# Disc length: 2179 seconds
#
# Revision: 1
# Processed by: cddbd v1.5.2PL0 Copyright (c) Steve Scherf et al.
# Submitted via: audiograbber 1.83.01
#
DISCID=9108810b
DTITLE=Tanya Tucker - Icon
DYEAR=2014
DGENRE=Country
TTITLE0=Lizzie and the Rain Man
TTITLE1=San Antonio Stroll
TTITLE2=Here's Some Love
TTITLE3=Just Another Love
TTITLE4=I'll Come Back As Another Woman
TTITLE5=I Won't Take Less Than Your Love
TTITLE6=If It Don't Come Easy
TTITLE7=Strong Enough To Bend
TTITLE8=My Arms Stay Open All Night
TTITLE9=Down To My Last Teardrop
TTITLE10=It's a Little Too Late
EXTD=
EXTT0=
EXTT1=
EXTT2=
EXTT3=
EXTT4=
EXTT5=
EXTT6=
EXTT7=
EXTT8=
EXTT9=
EXTT10=
PLAYORDER=
